<?xml version="1.0" encoding="UTF-8"?>
<svg width="204px" height="29px" viewBox="0 0 204 29" version="1.1" xmlns="http://www.w3.org/2000/svg" xmlns:xlink="http://www.w3.org/1999/xlink">
    <!-- Generator: Sketch 41.2 (35397) - http://www.bohemiancoding.com/sketch -->
    <title>DEVCORE with slogan</title>
    <desc>Created with Sketch.</desc>
    <defs></defs>
    <g id="Symbols" stroke="none" stroke-width="1" fill="none" fill-rule="evenodd">
        <g id="DEVCORE-with-slogan">
            <g>
                <path d="M37.1125241,11.3912692 L39.840731,27.9362692 L42.5513517,27.9362692 L40.1983172,11.3912692 L37.1125241,11.3912692 Z M56.1910966,0.154076923 L43.2816483,22.0713846 L43.8092345,25.7798462 L59.4914414,0.154076923 L56.1910966,0.154076923 Z" id="v" fill="#44D62C"></path>
                <g id="gray" transform="translate(0.000000, 10.510462)" fill="#53565A">
                    <path d="M14.0592345,2.48061538 C13.3170966,1.92676923 12.4776483,1.52061538 11.5432345,1.26446154 C10.6088207,1.00715385 9.66854483,0.880230769 8.71654483,0.880230769 L2.96937241,0.880230769 L-0.000351724138,17.4252308 L6.29551034,17.4252308 C7.76806207,17.4252308 9.12923448,17.1979231 10.3790276,16.7375385 C11.6288207,16.276 12.7144759,15.6263846 13.6324759,14.7840769 C14.5516483,13.9429231 15.2668207,12.9321538 15.7803379,11.746 C16.2973724,10.5633077 16.5517862,9.24330769 16.5517862,7.79523077 C16.5517862,6.56523077 16.3219931,5.50946154 15.8647517,4.62676923 C15.4063379,3.74638462 14.8048897,3.03215385 14.0592345,2.48061538 Z M19.8470897,17.4252308 L31.1257103,17.4252308 L31.5782621,14.8556154 L23.1708828,14.8556154 L24.0255724,10.1121538 L31.388331,10.1121538 L31.8373655,7.67869231 L24.4535034,7.67869231 L25.2132276,3.40253846 L32.9570207,3.40253846 L33.4060552,0.880230769 L22.8132966,0.880230769 L19.8470897,17.4252308 Z M59.0193103,5.25123077 C59.6137241,4.54738462 60.3265517,3.98661538 61.1554483,3.56661538 C61.9866897,3.14315385 62.9035172,2.93430769 63.900069,2.93430769 C64.3573103,2.93430769 64.7735172,2.98738462 65.1475172,3.09930769 C65.5203448,3.20776923 65.8544828,3.34969231 66.1534483,3.52161538 C66.4571034,3.69123077 66.7115172,3.88161538 66.9143448,4.09276923 C67.1242069,4.30161538 67.2883448,4.50238462 67.4126207,4.68930769 L69.7175862,2.98161538 C69.4666897,2.60892308 69.1407586,2.26623077 68.7444828,1.95469231 C68.3493793,1.64315385 67.9026897,1.37892308 67.4008966,1.15853846 C66.9037931,0.941615385 66.3668276,0.768538462 65.7864828,0.643923077 C65.2096552,0.520461538 64.6128966,0.457 63.9962069,0.457 C62.5986897,0.457 61.3055172,0.727 60.1002759,1.26469231 C58.8973793,1.80123077 57.8468966,2.53392308 56.9511724,3.46046154 C56.0566207,4.38815385 55.3566897,5.47623077 54.8502069,6.72007692 C54.3425517,7.96738462 54.0904828,9.30815385 54.0904828,10.7412308 C54.0904828,11.8027692 54.2733793,12.7650769 54.6368276,13.6396923 C55.0014483,14.5131538 55.5126207,15.2596923 56.1703448,15.8839231 C56.8245517,16.507 57.6124138,16.9881538 58.5327586,17.3343077 C59.4531034,17.6735385 60.4731034,17.8466154 61.5962759,17.8466154 C62.3888276,17.8466154 63.1157241,17.7681538 63.7804828,17.6123846 C64.4452414,17.4566154 65.0537241,17.242 65.6106207,16.9685385 C66.1628276,16.6985385 66.6611034,16.3789231 67.1066207,16.0108462 C67.5486207,15.6473846 67.9355172,15.2539231 68.2673103,14.8316154 L66.3949655,13.1966154 C65.7911724,13.9293077 65.11,14.4623846 64.3491034,14.8085385 C63.5882069,15.1512308 62.7909655,15.322 61.9526897,15.322 C61.1777241,15.322 60.4871724,15.1893077 59.8845517,14.9262308 C59.2831034,14.6608462 58.7813103,14.3077692 58.378,13.8623846 C57.9746897,13.4158462 57.6663448,12.8954615 57.4506207,12.2943077 C57.2384138,11.6966154 57.1317241,11.0527692 57.1317241,10.3650769 C57.1317241,9.43276923 57.2958621,8.52238462 57.63,7.63161538 C57.9606207,6.74661538 58.426069,5.94930769 59.0193103,5.25123077 Z M87.8848414,2.38530769 C87.1896,1.77030769 86.3548414,1.29492308 85.3793931,0.960307692 C84.4086345,0.626846154 83.3171172,0.456076923 82.1142207,0.456076923 C80.7202207,0.456076923 79.4329103,0.727230769 78.2440828,1.26492308 C77.0564276,1.80146154 76.0270483,2.53069231 75.1559448,3.44684615 C74.283669,4.36761538 73.5989793,5.45223077 73.1018759,6.69953846 C72.6036,7.94569231 72.3550483,9.27146154 72.3550483,10.6710769 C72.3550483,11.7764615 72.5449793,12.7733846 72.923669,13.6641538 C73.3023586,14.5526154 73.8487034,15.3072308 74.5498069,15.9303077 C75.2544276,16.5545385 76.1056,17.0310769 77.1021517,17.3564615 C78.0998759,17.6818462 79.2171862,17.8468462 80.4540828,17.8468462 C81.8492552,17.8468462 83.1271862,17.578 84.2984276,17.0391538 C85.469669,16.5014615 86.4826345,15.7745385 87.339669,14.8560769 C88.1967034,13.9341538 88.8638069,12.8541538 89.3480138,11.608 C89.8287034,10.3595385 90.0690483,9.03492308 90.0690483,7.63069231 C90.0690483,6.52530769 89.8802897,5.52953846 89.5004276,4.64107692 C89.1217379,3.75261538 88.5847724,3.00146154 87.8848414,2.38530769 Z M107.622545,5.15696154 C107.622545,3.81503846 107.118407,2.76734615 106.114821,2.01273077 C105.1042,1.25580769 103.679717,0.880807692 101.828476,0.880807692 L96.8386828,0.880807692 L93.8713034,17.4246538 L96.7425448,17.4246538 L97.978269,10.3642692 L100.210545,10.3642692 L103.392476,17.4246538 L106.693993,17.4246538 L103.203717,10.0400385 C104.550821,9.74465385 105.622407,9.18734615 106.423166,8.36926923 C107.220407,7.55003846 107.622545,6.47811538 107.622545,5.15696154 Z M124.174097,3.40219231 L124.626648,0.879884615 L114.032717,0.879884615 L111.065338,17.4248846 L122.346303,17.4248846 L122.79651,14.8564231 L114.389131,14.8564231 L115.246166,10.1118077 L122.606579,10.1118077 L123.056786,7.67834615 L115.670579,7.67834615 L116.429131,3.40219231 L124.174097,3.40219231 Z M13.0638552,10.6913846 C12.7625448,11.4921538 12.3170276,12.2052308 11.7226138,12.8375385 C11.1293724,13.4663846 10.3872345,13.9706154 9.50088966,14.341 C8.61454483,14.716 7.5839931,14.8994615 6.41275172,14.8994615 L3.3504069,14.8994615 L5.41502759,3.35523077 L8.00488966,3.35523077 C8.9522,3.35523077 9.77406207,3.48330769 10.4610966,3.73946154 C11.1504759,3.99792308 11.7226138,4.34292308 12.1728207,4.77792308 C12.6230276,5.21523077 12.9595103,5.72638462 13.182269,6.31715385 C13.4038552,6.91023077 13.5128897,7.531 13.5128897,8.18523077 C13.5128897,9.05407692 13.3639931,9.89176923 13.0638552,10.6913846 Z M103.560131,7.39773077 C102.863717,7.80503846 101.8742,8.00696154 100.592752,8.00696154 L98.4062,8.00696154 L99.2608897,3.30734615 L101.375924,3.30734615 C102.358407,3.30734615 103.139234,3.46657692 103.730131,3.77811538 C104.312821,4.08734615 104.604752,4.64696154 104.604752,5.45926923 C104.604752,6.34542308 104.255372,6.99619231 103.560131,7.39773077 Z M86.6151172,10.6237692 C86.3208414,11.5133846 85.8940828,12.3083846 85.3313241,13.0099231 C84.7709103,13.7091538 84.0803586,14.2710769 83.2690483,14.6910769 C82.4507034,15.1156923 81.5116,15.3210769 80.4540828,15.3210769 C79.627531,15.3210769 78.9006345,15.1895385 78.2698759,14.9264615 C77.6367724,14.6610769 77.1021517,14.3068462 76.6777379,13.8626154 C76.2474621,13.4160769 75.9250483,12.8956923 75.7046345,12.2945385 C75.4807034,11.6968462 75.3681517,11.053 75.3681517,10.3641538 C75.3681517,9.433 75.5264276,8.52261538 75.8347724,7.63069231 C76.1431172,6.74684615 76.5839448,5.94953846 77.1502207,5.25146154 C77.7211862,4.54646154 78.4140828,3.98684615 79.2324276,3.56684615 C80.0437379,3.14338462 80.9570483,2.93453846 81.9758759,2.93453846 C82.7965655,2.93453846 83.5258069,3.06838462 84.1600828,3.33261538 C84.7931862,3.59684615 85.3219448,3.95107692 85.7498759,4.39646154 C86.1766345,4.84184615 86.5025655,5.36453846 86.7229793,5.97492308 C86.9433931,6.58184615 87.0559448,7.21992308 87.0559448,7.89030769 C87.0559448,8.82492308 86.9070483,9.73530769 86.6151172,10.6237692 Z" id="Combined-Shape"></path>
                    <path d="M140.29889,2.25388462 C140.055028,1.94119231 139.574338,1.70926923 139.120614,1.70926923 C138.595372,1.70926923 137.98689,1.9585 137.98689,2.57465385 C137.98689,3.15388462 138.485166,3.32465385 139.21089,3.54734615 C140.036269,3.79773077 141.087924,4.15311538 141.087924,5.3935 C141.087924,6.75042308 140.009303,7.41157692 138.748959,7.41157692 C137.915372,7.41157692 137.053648,7.09773077 136.544821,6.50926923 L137.361993,5.75926923 C137.679717,6.1885 138.25889,6.45734615 138.766545,6.45734615 C139.302338,6.45734615 139.927234,6.19773077 139.927234,5.51926923 C139.927234,4.85926923 139.256614,4.67234615 138.449993,4.42080769 C137.670338,4.18080769 136.8262,3.80696154 136.8262,2.62773077 C136.8262,1.3435 138.015028,0.772346154 139.175717,0.772346154 C139.8182,0.772346154 140.553303,0.995038462 141.043372,1.45080769 L140.29889,2.25388462 Z" id="Fill-18"></path>
                    <polygon id="Fill-20" points="143.3134 0.933307692 147.565745 0.933307692 147.565745 1.91523077 144.456503 1.91523077 144.456503 3.52023077 147.402779 3.52023077 147.402779 4.46753846 144.456503 4.46753846 144.456503 6.25138462 147.729883 6.25138462 147.729883 7.25061538 143.3134 7.25061538"></polygon>
                    <path d="M154.558959,2.41392308 C154.223648,1.95815385 153.615166,1.76315385 153.099303,1.76315385 C151.774476,1.76315385 150.877579,2.77161538 150.877579,4.07315385 C150.877579,5.44738462 151.729924,6.40276923 153.054752,6.40276923 C153.742959,6.40276923 154.286959,6.10738462 154.614062,5.67007692 L155.529717,6.30469231 C154.966959,7.00046154 154.133372,7.41123077 153.045372,7.41123077 C151.041717,7.41123077 149.618407,6.04507692 149.618407,4.07315385 C149.618407,2.04815385 151.123786,0.772 153.099303,0.772 C153.934062,0.772 154.922407,1.07546154 155.42889,1.73546154 L154.558959,2.41392308 Z" id="Fill-22"></path>
                    <path d="M162.432772,4.93011538 C162.432772,6.45665385 161.317807,7.41088462 159.848772,7.41088462 C158.379738,7.41088462 157.265945,6.45665385 157.265945,4.93011538 L157.265945,0.933192308 L158.407876,0.933192308 L158.407876,4.88511538 C158.407876,5.61780769 158.751393,6.40242308 159.848772,6.40242308 C160.946152,6.40242308 161.289669,5.61780769 161.289669,4.88511538 L161.289669,0.933192308 L162.432772,0.933192308 L162.432772,4.93011538 Z" id="Fill-24"></path>
                    <path d="M166.951841,3.65338462 C167.594324,3.65338462 168.329428,3.50223077 168.329428,2.73607692 C168.329428,2.04723077 167.640048,1.87876923 167.051497,1.87876923 L166.017428,1.87876923 L166.017428,3.65338462 L166.951841,3.65338462 Z M164.875497,0.933769231 L167.105428,0.933769231 C168.311841,0.933769231 169.471359,1.40684615 169.471359,2.74415385 C169.471359,3.65338462 168.900393,4.25223077 168.003497,4.44838462 L169.716393,7.24992308 L168.338807,7.24992308 L166.852186,4.573 L166.017428,4.573 L166.017428,7.24992308 L164.875497,7.24992308 L164.875497,0.933769231 Z" id="Fill-26"></path>
                    <polygon id="Fill-28" points="171.660138 7.25038462 172.803241 7.25038462 172.803241 0.933076923 171.660138 0.933076923"></polygon>
                    <polygon id="Fill-30" points="176.599634 1.91476923 174.631152 1.91476923 174.631152 0.932846154 179.708876 0.932846154 179.708876 1.91476923 177.742738 1.91476923 177.742738 7.25015385 176.599634 7.25015385"></polygon>
                    <polygon id="Fill-31" points="182.976862 4.51092308 180.565207 0.932846154 181.961552 0.932846154 183.575966 3.59246154 185.206793 0.932846154 186.531621 0.932846154 184.119966 4.51092308 184.119966 7.25015385 182.976862 7.25015385"></polygon>
                    <path d="M141.659007,12.589 C141.323697,12.1332308 140.715214,11.9382308 140.199352,11.9382308 C138.874524,11.9382308 137.977628,12.9466923 137.977628,14.2493846 C137.977628,15.6236154 138.829972,16.5778462 140.1548,16.5778462 C140.843007,16.5778462 141.387007,16.2836154 141.71411,15.8451538 L142.628593,16.4797692 C142.067007,17.1755385 141.233421,17.5863077 140.145421,17.5863077 C138.141766,17.5863077 136.718455,16.2201538 136.718455,14.2493846 C136.718455,12.2232308 138.223834,10.9470769 140.199352,10.9470769 C141.03411,10.9470769 142.022455,11.2516923 142.528938,11.9116923 L141.659007,12.589 Z" id="Fill-32"></path>
                    <path d="M147.446628,16.5778462 C148.760903,16.5778462 149.658972,15.5959231 149.658972,14.2493846 C149.658972,12.9466923 148.779662,11.9382308 147.446628,11.9382308 C146.122972,11.9382308 145.243662,12.9466923 145.243662,14.2493846 C145.243662,15.5959231 146.140559,16.5778462 147.446628,16.5778462 M147.438421,10.9470769 C149.440903,10.9470769 150.900559,12.2232308 150.900559,14.2493846 C150.900559,16.2201538 149.440903,17.5863077 147.438421,17.5863077 C145.460559,17.5863077 144.000903,16.2201538 144.000903,14.2493846 C144.000903,12.2232308 145.460559,10.9470769 147.438421,10.9470769" id="Fill-33"></path>
                    <polygon id="Fill-34" points="153.088283 11.1083846 154.603041 11.1083846 157.585662 15.838 157.603248 15.838 157.603248 11.1083846 158.746352 11.1083846 158.746352 17.4256923 157.294903 17.4256923 154.248972 12.5449231 154.231386 12.5449231 154.231386 17.4256923 153.088283 17.4256923"></polygon>
                    <path d="M164.515331,12.4289615 C164.271469,12.1162692 163.790779,11.8843462 163.337055,11.8843462 C162.810641,11.8843462 162.203331,12.1335769 162.203331,12.7497308 C162.203331,13.3301154 162.701607,13.4997308 163.427331,13.7224231 C164.251538,13.9728077 165.303193,14.3281923 165.303193,15.5697308 C165.303193,16.9255 164.224572,17.5866538 162.9654,17.5866538 C162.131814,17.5866538 161.27009,17.2728077 160.761262,16.6843462 L161.578434,15.9355 C161.894986,16.3635769 162.475331,16.6324231 162.982986,16.6324231 C163.517607,16.6324231 164.143676,16.3728077 164.143676,15.6943462 C164.143676,15.0343462 163.471883,14.8474231 162.665262,14.5970385 C161.885607,14.3570385 161.042641,13.9820385 161.042641,12.8028077 C161.042641,11.5185769 162.231469,10.9474231 163.392159,10.9474231 C164.034641,10.9474231 164.769745,11.1701154 165.258641,11.6258846 L164.515331,12.4289615 Z" id="Fill-35"></path>
                    <path d="M172.643207,15.1062308 C172.643207,16.6316154 171.528241,17.5858462 170.059207,17.5858462 C168.590172,17.5858462 167.475207,16.6316154 167.475207,15.1062308 L167.475207,11.1081538 L168.61831,11.1081538 L168.61831,15.0612308 C168.61831,15.7927692 168.961828,16.5773846 170.059207,16.5773846 C171.156586,16.5773846 171.500103,15.7927692 171.500103,15.0612308 L171.500103,11.1081538 L172.643207,11.1081538 L172.643207,15.1062308 Z" id="Fill-36"></path>
                    <polygon id="Fill-37" points="175.085462 11.1083846 176.228566 11.1083846 176.228566 16.4264615 178.956772 16.4264615 178.956772 17.4256923 175.085462 17.4256923"></polygon>
                    <polygon id="Fill-38" points="181.318952 12.0898462 179.350469 12.0898462 179.350469 11.1079231 184.428193 11.1079231 184.428193 12.0898462 182.462055 12.0898462 182.462055 17.4252308 181.318952 17.4252308"></polygon>
                    <polygon id="Fill-39" points="186.254345 17.4261538 187.396276 17.4261538 187.396276 11.1088462 186.254345 11.1088462"></polygon>
                    <polygon id="Fill-40" points="189.897386 11.1083846 191.412145 11.1083846 194.394766 15.838 194.413524 15.838 194.413524 11.1083846 195.555455 11.1083846 195.555455 17.4256923 194.105179 17.4256923 191.058076 12.5449231 191.04049 12.5449231 191.04049 17.4256923 189.897386 17.4256923"></polygon>
                    <path d="M203.671021,17.0961538 C203.028538,17.3996154 202.25709,17.5865385 201.251159,17.5865385 C199.184193,17.5865385 197.742124,16.2203846 197.742124,14.2496154 C197.742124,12.2223077 199.247503,10.9473077 201.224193,10.9473077 C202.239503,10.9473077 203.145779,11.2680769 203.662814,11.7411538 L202.873779,12.58 C202.547848,12.2223077 201.921779,11.9373077 201.2324,11.9373077 C199.881779,11.9373077 199.002469,12.9457692 199.002469,14.2496154 C199.002469,15.5961538 199.8724,16.5780769 201.287503,16.5780769 C201.768193,16.5780769 202.193779,16.5053846 202.565434,16.3542308 L202.565434,14.7492308 L201.214814,14.7492308 L201.214814,13.8203846 L203.671021,13.8203846 L203.671021,17.0961538 Z" id="Fill-41"></path>
                </g>
            </g>
        </g>
    </g>
</svg>