<?xml version="1.0" encoding="UTF-8"?>
<svg width="120px" height="30px" viewBox="0 0 120 30" version="1.1" xmlns="http://www.w3.org/2000/svg" xmlns:xlink="http://www.w3.org/1999/xlink">
    <!-- Generator: Sketch 41.1 (35376) - http://www.bohemiancoding.com/sketch -->
    <title>logo-mobile</title>
    <desc>Created with Sketch.</desc>
    <defs></defs>
    <g id="Symbols" stroke="none" stroke-width="1" fill="none" fill-rule="evenodd">
        <g id="logo-英文">
            <g transform="translate(1.000000, 1.000000)" id="DEVCORE">
                <g>
                    <path d="M34.9869734,11.2258065 L37.7023699,28.0645161 L40.3972298,28.0645161 L38.056056,11.2258065 L34.9869734,11.2258065 Z M53.0874958,0.000336774194 L40.890387,21.79524 L41.3888917,25.4829174 L56.2053173,0.000336774194 L53.0874958,0.000336774194 Z" id="Combined-Shape" fill="#44D62C"></path>
                    <path d="M13.5936107,12.8548772 C12.8760447,12.2907914 12.0642081,11.877205 11.1603189,11.6175647 C10.2564298,11.3567755 9.34921341,11.2258065 8.42647013,11.2258065 L2.87004722,11.2258065 L-0.000216741159,28.0645161 L6.08744899,28.0645161 C7.51038124,28.0645161 8.82573405,27.8324482 10.0357255,27.3648658 C11.244608,26.8938369 12.2926758,26.2343964 13.181038,25.3750558 C14.0694002,24.5203107 14.7614577,23.4909401 15.2583194,22.2846466 C15.7573993,21.0806507 16.0036121,19.7376438 16.0036121,18.2636679 C16.0036121,17.0114203 15.7817988,15.9372446 15.3381722,15.0399919 C14.8956547,14.1438881 14.3145039,13.4166654 13.5936107,12.8548772 Z M12.630941,21.2104708 C12.3392566,22.0261551 11.9089388,22.7522289 11.3344424,23.3944367 C10.7599459,24.0354955 10.043489,24.5478831 9.18618064,24.9247062 C8.32887228,25.3072736 7.33293061,25.4945364 6.20057377,25.4945364 L3.23936635,25.4945364 L5.23457689,13.7452368 L7.73884893,13.7452368 C8.65493781,13.7452368 9.45013846,13.8750569 10.1144693,14.1358461 C10.7810182,14.398933 11.3344424,14.7504814 11.7691964,15.1927891 C12.2039504,15.6373944 12.530016,16.1589728 12.7451749,16.7598219 C12.9592247,17.3629687 13.0656951,17.9948368 13.0656951,18.6611704 C13.0656951,19.5446368 12.9204074,20.3970843 12.630941,21.2104708 Z M18.7509279,28.066686 L29.6577835,28.066686 L30.094812,25.4515641 L21.9654166,25.4515641 L22.7917776,20.6223209 L29.9106833,20.6223209 L30.3454934,18.1462279 L23.2044035,18.1462279 L23.9398093,13.7938194 L31.4269725,13.7938194 L31.8617826,11.2258065 L21.6193433,11.2258065 L18.7509279,28.066686 Z M55.759264,15.7666452 C56.3206236,15.0661548 56.9936049,14.5093548 57.7771242,14.0917548 C58.5628109,13.6707871 59.4286919,13.4631097 60.3693485,13.4631097 C60.8028308,13.4631097 61.1951323,13.515871 61.5484204,13.6270065 C61.9006248,13.7347742 62.2159832,13.8762194 62.4999141,14.0468516 C62.7860124,14.2163613 63.0265951,14.4049548 63.218411,14.6148774 C63.4167292,14.8225548 63.5716991,15.0223742 63.6887393,15.2076 L65.866988,13.5102581 C65.6296564,13.1398065 65.321884,12.7985419 64.9480055,12.4887097 C64.574127,12.1788774 64.1514817,11.9161935 63.6779023,11.6972903 C63.2086577,11.4806323 62.7003996,11.3088774 62.1520445,11.184271 C61.6069405,11.0630323 61.0434135,10.9990452 60.4603798,10.9990452 C59.1404261,10.9990452 57.9190897,11.2684645 56.7801149,11.8016903 C55.6443912,12.3360387 54.6517167,13.0645935 53.8053425,13.9862323 C52.960052,14.907871 52.2989914,15.9911613 51.8210772,17.2282452 C51.3409955,18.4686968 51.1025802,19.8000774 51.1025802,21.2257548 C51.1025802,22.2809806 51.2759732,23.2385419 51.6184242,24.1085419 C51.9641263,24.9774194 52.4463754,25.7194452 53.0673388,26.3391097 C53.6861348,26.9598968 54.4306407,27.4381161 55.2997728,27.7816258 C56.1689048,28.1195226 57.133403,28.2912774 58.194351,28.2912774 C58.942108,28.2912774 59.6291774,28.2138194 60.2577268,28.0589032 C60.8851924,27.9039871 61.4595565,27.6906968 61.9862375,27.4190323 C62.5075,27.1507355 62.9778283,26.8319226 63.4004736,26.4670839 C63.8177003,26.1044903 64.1839929,25.7138323 64.4961001,25.2928645 L62.7264086,23.6684903 C62.157463,24.3959226 61.5137418,24.9280258 60.7941612,25.2715355 C60.0756642,25.6116774 59.3224887,25.7800645 58.5313835,25.7800645 C57.7987983,25.7800645 57.1464074,25.6498452 56.5774619,25.3871613 C56.0074327,25.1244774 55.5349369,24.7731097 55.1523888,24.3296903 C54.7720081,23.886271 54.4815749,23.3687613 54.2767545,22.7704258 C54.0762689,22.1754581 53.9754843,21.5367097 53.9754843,20.8519355 C53.9754843,19.9246839 54.1315379,19.0198839 54.4468963,18.1341677 C54.7590036,17.2540645 55.1979044,16.4615226 55.759264,15.7666452 Z M83.0303952,12.9180968 C82.3725858,12.3062903 81.5847317,11.8325613 80.6624981,11.5002774 C79.745683,11.1679935 78.7139951,10.9996065 77.5782714,10.9996065 C76.2604851,10.9996065 75.0445672,11.2679032 73.9229317,11.8022516 C72.8002125,12.3366 71.8270447,13.0617871 71.004512,13.9722 C70.1808956,14.8893484 69.5339233,15.9659032 69.063595,17.2063548 C68.5932666,18.4468065 68.3581025,19.7647161 68.3581025,21.1567161 C68.3581025,22.2557226 68.5369139,23.2469613 68.8956206,24.1326774 C69.2532435,25.0161484 69.7690874,25.7660323 70.4323154,26.3856968 C71.0977107,27.0064839 71.9018204,27.4802129 72.8424771,27.8035161 C73.7863848,28.1279419 74.8419143,28.2907161 76.0101491,28.2907161 C77.3279354,28.2907161 78.5351836,28.0257871 79.6416472,27.488071 C80.7481108,26.9537226 81.7050231,26.2307806 82.5145513,25.3181226 C83.3240795,24.4009742 83.95588,23.3277871 84.4121201,22.0873355 C84.8661929,20.8468839 85.0937711,19.5289742 85.0937711,18.1336065 C85.0937711,17.0346 84.9149596,16.0433613 84.556253,15.1598903 C84.1986301,14.2775419 83.6914558,13.5299032 83.0303952,12.9180968 Z M81.8307329,21.1095677 C81.5522205,21.9930387 81.149082,22.7844581 80.6169824,23.4827032 C80.088134,24.1775806 79.4357431,24.7366258 78.6695631,25.1542258 C77.8968809,25.5751935 77.0093258,25.7806258 76.0101491,25.7806258 C75.2287972,25.7806258 74.5428115,25.6504065 73.9467733,25.3866 C73.347484,25.1239161 72.8424771,24.7725484 72.4415059,24.329129 C72.0351163,23.8868323 71.7305949,23.3682 71.5225234,22.7709871 C71.3112008,22.1760194 71.2039139,21.5361484 71.2039139,20.8524968 C71.2039139,19.9252452 71.354549,19.0193226 71.6449822,18.1336065 C71.936499,17.2535032 72.3537258,16.4609613 72.8879927,15.7660839 C73.4276782,15.0655935 74.0822365,14.5099161 74.8549187,14.0911935 C75.6221824,13.6702258 76.4858959,13.463671 77.447143,13.463671 C78.2230763,13.463671 78.9123132,13.5961355 79.5105188,13.8588194 C80.1098081,14.1215032 80.6093965,14.4739935 81.0125351,14.9162903 C81.4167573,15.3597097 81.7234461,15.8805871 81.9326013,16.4867806 C82.1406728,17.0896065 82.2479597,17.7238645 82.2479597,18.3906774 C82.2479597,19.3212968 82.1059942,20.2260968 81.8307329,21.1095677 Z M101.982001,15.5779511 C101.982001,14.211874 101.495088,13.1468165 100.524589,12.3793316 C99.5474344,11.6084 98.1698798,11.2258065 96.3808336,11.2258065 L91.5549562,11.2258065 L88.6856056,28.0645161 L91.4628974,28.0645161 L92.6574435,20.8791115 L94.8158341,20.8791115 L97.8925943,28.0645161 L101.085814,28.0645161 L97.7095859,20.5482198 C99.0117187,20.2472003 100.048767,19.6807781 100.822948,18.8478043 C101.593802,18.0148304 101.982001,16.9233475 101.982001,15.5779511 Z M98.0545291,17.858576 C97.3812798,18.2721906 96.4240901,18.4789979 95.1851784,18.4789979 L93.0711535,18.4789979 L93.8963552,13.6960047 L95.9427225,13.6960047 C96.8921481,13.6960047 97.6474739,13.8580038 98.2186821,14.1751083 C98.7821263,14.489915 99.0638484,15.058635 99.0638484,15.8870131 C99.0638484,16.7877738 98.7277783,17.4507061 98.0545291,17.858576 Z M117.605523,13.7925148 L118.043634,11.2258065 L107.799598,11.2258065 L104.930247,28.0645161 L115.83866,28.0645161 L116.273444,25.4495528 L108.144541,25.4495528 L108.97307,20.6206024 L116.090435,20.6206024 L116.525219,18.1446595 L109.383453,18.1446595 L110.116596,13.7925148 L117.605523,13.7925148 Z" id="Combined-Shape" fill="#53565A"></path>
                </g>
            </g>
        </g>
    </g>
</svg>