<?xml version="1.0" encoding="UTF-8"?>
<svg width="48px" height="48px" viewBox="0 0 48 48" version="1.1" xmlns="http://www.w3.org/2000/svg" xmlns:xlink="http://www.w3.org/1999/xlink">
    <!-- Generator: Sketch 41.2 (35397) - http://www.bohemiancoding.com/sketch -->
    <title>twitter</title>
    <desc>Created with Sketch.</desc>
    <defs></defs>
    <g id="Symbols" stroke="none" stroke-width="1" fill="none" fill-rule="evenodd">
        <g id="icon/sns/twitter" fill="#FFFFFF">
            <g id="Shape">
                <path d="M36,16.557 C35.117,16.949 34.168,17.213 33.172,17.332 C34.189,16.723 34.97,15.758 35.337,14.608 C34.386,15.172 33.332,15.582 32.21,15.803 C31.313,14.846 30.032,14.248 28.616,14.248 C25.437,14.248 23.101,17.214 23.819,20.293 C19.728,20.088 16.1,18.128 13.671,15.149 C12.381,17.362 13.002,20.257 15.194,21.723 C14.388,21.697 13.628,21.476 12.965,21.107 C12.911,23.388 14.546,25.522 16.914,25.997 C16.221,26.185 15.462,26.229 14.69,26.081 C15.316,28.037 17.134,29.46 19.29,29.5 C17.22,31.123 14.612,31.848 12,31.54 C14.179,32.937 16.768,33.752 19.548,33.752 C28.69,33.752 33.855,26.031 33.543,19.106 C34.505,18.411 35.34,17.544 36,16.557 L36,16.557 Z"></path>
            </g>
        </g>
    </g>
</svg>